name C:\Users\u0150099\Documents\master_thesis\3dpredictsim\Results\debug\Fal_s1_mtjc_sc_cspx10_oy_TrackAnkleQSubtQ_MTc2_MTPm_k1_d01_MTJm_nl_MG_exp_v2_table_d01_PF_Gefen2002_ls146_FDB_ig21.mot
datacolumns 130
datarows 4
range 0.55314856 0.58633747
endheader
time	pelvis_tilt	pelvis_list	pelvis_rotation	pelvis_tx	pelvis_ty	pelvis_tz	hip_flexion_l	hip_adduction_l	hip_rotation_l	hip_flexion_r	hip_adduction_r	hip_rotation_r	knee_angle_l	knee_angle_r	ankle_angle_l	ankle_angle_r	subtalar_angle_l	subtalar_angle_r	mtj_angle_l	mtj_angle_r	mtp_angle_l	mtp_angle_r	lumbar_extension	lumbar_bending	lumbar_rotation	arm_flex_l	arm_add_l	arm_rot_l	arm_flex_r	arm_add_r	arm_rot_r	elbow_flex_l	elbow_flex_r	pro_sup_l	pro_sup_r	glut_med1_l/activation	glut_med2_l/activation	glut_med3_l/activation	glut_min1_l/activation	glut_min2_l/activation	glut_min3_l/activation	semimem_l/activation	semiten_l/activation	bifemlh_l/activation	bifemsh_l/activation	sar_l/activation	add_long_l/activation	add_brev_l/activation	add_mag1_l/activation	add_mag2_l/activation	add_mag3_l/activation	tfl_l/activation	pect_l/activation	grac_l/activation	glut_max1_l/activation	glut_max2_l/activation	glut_max3_l/activation	iliacus_l/activation	psoas_l/activation	quad_fem_l/activation	gem_l/activation	peri_l/activation	rect_fem_l/activation	vas_med_l/activation	vas_int_l/activation	vas_lat_l/activation	med_gas_l/activation	lat_gas_l/activation	soleus_l/activation	tib_post_l/activation	flex_dig_l/activation	flex_hal_l/activation	tib_ant_l/activation	per_brev_l/activation	per_long_l/activation	per_tert_l/activation	ext_dig_l/activation	ext_hal_l/activation	FDB_l/activation	ercspn_l/activation	intobl_l/activation	extobl_l/activation	glut_med1_r/activation	glut_med2_r/activation	glut_med3_r/activation	glut_min1_r/activation	glut_min2_r/activation	glut_min3_r/activation	semimem_r/activation	semiten_r/activation	bifemlh_r/activation	bifemsh_r/activation	sar_r/activation	add_long_r/activation	add_brev_r/activation	add_mag1_r/activation	add_mag2_r/activation	add_mag3_r/activation	tfl_r/activation	pect_r/activation	grac_r/activation	glut_max1_r/activation	glut_max2_r/activation	glut_max3_r/activation	iliacus_r/activation	psoas_r/activation	quad_fem_r/activation	gem_r/activation	peri_r/activation	rect_fem_r/activation	vas_med_r/activation	vas_int_r/activation	vas_lat_r/activation	med_gas_r/activation	lat_gas_r/activation	soleus_r/activation	tib_post_r/activation	flex_dig_r/activation	flex_hal_r/activation	tib_ant_r/activation	per_brev_r/activation	per_long_r/activation	per_tert_r/activation	ext_dig_r/activation	ext_hal_r/activation	FDB_r/activation	ercspn_r/activation	intobl_r/activation	extobl_r/activation	
          0.55314856	         -2.92525205	          2.22595079	         -6.27270337	          0.73568758	          0.90415233	          0.00731611	         27.96900528	          2.49176625	         -7.96633831	         -8.59697451	         -0.41902256	         -2.09554335	         -7.50943770	        -26.86643065	          1.73623605	          0.26156894	          0.62893938	          4.25563891	          1.31911550	          3.51768757	         12.73062098	         30.31323948	         -5.65378072	         -1.55434995	          1.71571694	         -1.77285841	        -13.45446625	         10.44159031	          5.69434302	        -13.94373377	         19.26889153	         19.39416084	         41.46326693	         86.51662706	         86.51662706	          0.05921909	          0.05921724	          0.05000011	          0.05921913	          0.05921908	          0.05002735	          0.32248159	          0.05921922	          0.05921924	          0.05921926	          0.13528019	          0.17299209	          0.09465570	          0.05227012	          0.05000143	          0.16448079	          0.05000030	          0.05003841	          0.09645218	          0.05000041	          0.05000016	          0.23560672	          0.15373305	          0.16346015	          0.36597836	          0.27163126	          0.11501143	          0.05000003	          0.05000007	          0.05000007	          0.05000006	          0.07360652	          0.06969090	          0.05261415	          0.25582837	          0.05921914	          0.05921914	          0.37181425	          0.17242650	          0.34477816	          0.21127176	          0.67248166	          0.58598874	          0.28002878	          0.05000006	          0.12042160	          0.07296425	          0.22929051	          0.05000007	          0.05000002	          0.51743211	          0.13347406	          0.05000019	          0.05000137	          0.05000011	          0.05000010	          0.05000007	          0.05000039	          0.07502514	          0.18374721	          0.05000020	          0.05000164	          0.13749079	          0.56635720	          0.05000301	          0.05000017	          0.05000085	          0.05000051	          0.05000028	          0.08298260	          0.25611352	          0.05000002	          0.05000006	          0.05000007	          0.78337313	          0.19586059	          0.21240607	          0.16952239	          0.39220047	          0.64200412	          0.13545877	          0.76754394	          0.99295825	          0.78310539	          0.05000000	          0.05921901	          0.45428741	          0.05000005	          0.05000003	          0.09838725	          0.80680343	          0.05000001	          0.05000002	          0.08031276	
          0.56421153	         -2.92665690	          2.38605948	         -6.50716580	          0.75373057	          0.90227687	          0.00663289	         28.22804412	          2.77989482	         -8.04046356	        -10.15416123	         -0.96095682	         -2.35836737	         -9.35932872	        -25.77179125	          1.00236381	         -1.10266594	          0.40696514	          4.69143534	          1.83280950	          3.23293113	         12.80192923	         32.04387194	         -5.48059633	         -1.77016282	          1.87639041	         -2.59638804	        -13.45104428	          9.82875002	          5.34603551	        -13.91876420	         19.37211542	         18.91525081	         42.49356890	         86.51662706	         86.51662706	          0.05000001	          0.05000003	          0.05000221	          0.05000005	          0.05000006	          0.05000007	          0.27227818	          0.05000009	          0.05000009	          0.05000012	          0.11652822	          0.16582853	          0.17862385	          0.12700869	          0.05921937	          0.21301777	          0.07014064	          0.10934877	          0.08143677	          0.05000028	          0.05000045	          0.31897270	          0.12980026	          0.13801331	          0.63510195	          0.22934442	          0.09710764	          0.08307045	          0.05921929	          0.05921927	          0.05921922	          0.07013812	          0.07013817	          0.06370798	          0.29083062	          0.05000002	          0.05000004	          0.43177443	          0.20689108	          0.29110400	          0.54606382	          0.70413182	          0.64735677	          0.23643435	          0.05000000	          0.10167456	          0.06160531	          0.19359494	          0.05000500	          0.05002645	          0.43687914	          0.11269515	          0.05003795	          0.05000189	          0.05000019	          0.05000037	          0.05000006	          0.05000031	          0.06334542	          0.22358399	          0.29411324	          0.13966201	          0.15120200	          0.47818830	          0.05000060	          0.05000036	          0.05005754	          0.05153011	          0.05922003	          0.07006403	          0.30002118	          0.05000079	          0.05921921	          0.05921918	          0.68359454	          0.17210000	          0.17933944	          0.14313175	          0.39997506	          0.66415617	          0.11991710	          0.64805396	          0.91438826	          0.66119287	          0.05000696	          0.05000007	          0.38356468	          0.05000003	          0.05000002	          0.08307049	          0.68120156	          0.05555627	          0.06681618	          0.06780983	
          0.57527450	         -2.92594225	          2.57311277	         -6.71716183	          0.77204184	          0.90048915	          0.00593093	         28.47373834	          2.99900445	         -8.02103207	        -11.66480280	         -1.53085332	         -2.60508502	        -11.72365147	        -24.72805936	          0.35477837	         -2.69833616	          0.08533008	          5.10654669	          2.19119541	          2.92285133	         12.79217038	         33.80371252	         -5.30038523	         -2.01636352	          2.03237366	         -3.44676222	        -13.46957182	          9.42850560	          4.92289891	        -13.87323124	         19.38574497	         18.48786111	         43.50793395	         86.51662706	         86.51662706	          0.33692082	          0.30010493	          0.31233308	          0.36858878	          0.37398437	          0.31852321	          0.22989036	          0.14856899	          0.10607695	          0.09838815	          0.09838832	          0.14001264	          0.15081600	          0.10723622	          0.05000026	          0.28106539	          0.05922138	          0.09232584	          0.07349679	          0.05000023	          0.05000020	          0.39350777	          0.10959319	          0.11652763	          0.53623032	          0.19364055	          0.13192346	          0.07013818	          0.05000014	          0.05000012	          0.05000007	          0.05921913	          0.05921918	          0.05379002	          0.28989354	          0.11652510	          0.05921930	          0.48640883	          0.17468264	          0.34732003	          0.56749318	          0.75057505	          0.73106876	          0.56054568	          0.06321589	          0.13801381	          0.05201470	          0.16345642	          0.05000009	          0.05000004	          0.36886653	          0.09515112	          0.05000028	          0.05000066	          0.05000007	          0.05000008	          0.05000006	          0.05000242	          0.14269577	          0.18877859	          0.24832627	          0.11792004	          0.12766328	          0.54340349	          0.05921971	          0.05000028	          0.05000134	          0.05000080	          0.05000133	          0.05922041	          0.47116833	          0.05000006	          0.05000023	          0.05000018	          0.57717365	          0.14530778	          0.15142019	          0.12084924	          0.39275435	          0.65149871	          0.11866704	          0.54716596	          0.77203794	          0.55825945	          0.28763138	          0.28923559	          0.32385196	          0.45324726	          0.05000002	          0.07013821	          0.57515318	          0.07947558	          0.05641434	          0.05725335	
          0.58633747	         -2.92726453	          2.76596964	         -6.88879094	          0.79026164	          0.89896880	          0.00515805	         28.75961954	          3.21026584	         -7.98195155	        -12.98880383	         -2.09991267	         -2.80054665	        -14.11565573	        -23.95052811	         -0.68433226	         -4.49141013	         -0.32679019	          5.51111114	          2.45529629	          2.64756008	         12.85198730	         35.21848129	         -5.14729908	         -2.27063716	          2.18071417	         -4.23491252	        -13.49211256	          9.23469173	          4.48493724	        -13.81982360	         19.35682762	         18.04136124	         44.47420970	         86.51662706	         86.51662706	          0.46044641	          0.45389909	          0.40610013	          0.39155248	          0.32713411	          0.26893847	          0.19410139	          0.12544019	          0.08956311	          0.08307126	          0.08307141	          0.11821580	          0.17273863	          0.32295167	          0.38197521	          0.40327934	          0.05000200	          0.07795304	          0.17985028	          0.30989638	          0.31117814	          0.59266051	          0.09253190	          0.09838681	          0.45275089	          0.16349496	          0.11138595	          0.05921918	          0.05000006	          0.05000006	          0.05000006	          0.05000001	          0.05000006	          0.05000000	          0.34251002	          0.09838471	          0.05000016	          0.55993410	          0.30168881	          0.29324999	          0.60390190	          0.82305179	          0.84522216	          0.47328094	          0.12787786	          0.11652804	          0.05000003	          0.13800981	          0.05319667	          0.05922171	          0.31144202	          0.08033834	          0.05329296	          0.05923259	          0.09397331	          0.08955985	          0.05921927	          0.05000044	          0.42105238	          0.15939005	          0.30798448	          0.18080912	          0.12498865	          0.51019749	          0.05000079	          0.05000182	          0.05796469	          0.05922948	          0.10982445	          0.05000110	          0.61773994	          0.12376526	          0.16210213	          0.07284611	          0.48732020	          0.12268653	          0.12784736	          0.10203565	          0.38857224	          0.66562718	          0.13130362	          0.46198404	          0.65184835	          0.47135053	          0.55011869	          0.29422231	          0.27343521	          0.68532784	          0.05000036	          0.05921921	          0.48561424	          0.13266131	          0.05000001	          0.05000002	
